<?xml version="1.0"?>
<svg width="960" height="960" xmlns="http://www.w3.org/2000/svg" xmlns:svg="http://www.w3.org/2000/svg">
 <g class="layer">
  <title>Layer 1</title>
  <path d="m555,568q17,0 29.5,-12.5t12.5,-29.5q0,-17 -12.5,-29.5t-29.5,-12.5q-17,0 -29.5,12.5t-12.5,29.5q0,17 12.5,29.5t29.5,12.5zm-30,-128l60,0q0,-29 6,-42.5t28,-35.5q30,-30 40,-48.5t10,-43.5q0,-45 -31.5,-73.5t-82.5,-28.5q-41,0 -71.5,23t-42.5,61l54,22q9,-25 24.5,-37.5t35.5,-12.5q24,0 39,13.5t15,36.5q0,14 -8,26.5t-28,31.5q-33,29 -40.5,45.5t-7.5,62.5zm-210,248q-33,0 -56.5,-23.5t-23.5,-56.5l0,-480q0,-33 23.5,-56.5t56.5,-23.5l480,0q33,0 56.5,23.5t23.5,56.5l0,480q0,33 -23.5,56.5t-56.5,23.5l-480,0zm0,-80l480,0l0,-480l-480,0l0,480zm-160,240q-33,0 -56.5,-23.5t-23.5,-56.5l0,-560l80,0l0,560l560,0l0,80l-560,0zm160,-720l0,480l0,-480z" fill="#05af4c" id="svg_1"/>
 </g>
</svg>