<?xml version="1.0"?>
<svg width="960" height="960" xmlns="http://www.w3.org/2000/svg" xmlns:svg="http://www.w3.org/2000/svg">
 <g class="layer">
  <title>Layer 1</title>
  <path d="m558,479q-50,0 -85,-35t-35,-85q0,-50 35,-85t85,-35q50,0 85,35t35,85q0,50 -35,85t-85,35zm-280,120q-33,0 -56.5,-23.5t-23.5,-56.5l0,-320q0,-33 23.5,-56.5t56.5,-23.5l560,0q33,0 56.5,23.5t23.5,56.5l0,320q0,33 -23.5,56.5t-56.5,23.5l-560,0zm80,-80l400,0q0,-33 23.5,-56.5t56.5,-23.5l0,-160q-33,0 -56.5,-23.5t-23.5,-56.5l-400,0q0,33 -23.5,56.5t-56.5,23.5l0,160q33,0 56.5,23.5t23.5,56.5zm440,240l-680,0q-33,0 -56.5,-23.5t-23.5,-56.5l0,-440l80,0l0,440l680,0l0,80zm-520,-240l0,-320l0,320z" fill="#05af4c" id="svg_1"/>
 </g>
</svg>