<?xml version="1.0"?>
<svg width="960" height="960" xmlns="http://www.w3.org/2000/svg" xmlns:svg="http://www.w3.org/2000/svg">
 <g class="layer">
  <title>Layer 1</title>
  <path d="m135,449l0,-80l280,0l0,80l-280,0zm0,-160l0,-80l440,0l0,80l-440,0zm0,-160l0,-80l440,0l0,80l-440,0zm360,560l0,-123l221,-220q9,-9 20,-13t22,-4q12,0 23,4.5t20,13.5l37,37q8,9 12.5,20t4.5,22q0,11 -4,22.5t-13,20.5l-220,220l-123,0zm300,-263l-37,-37l37,37zm-240,203l38,0l121,-122l-18,-19l-19,-18l-122,121l0,38zm141,-141l-19,-18l37,37l-18,-19z" fill="#05af4c" id="svg_1"/>
 </g>
</svg>