<?xml version="1.0"?>
<svg width="960" height="960" xmlns="http://www.w3.org/2000/svg" xmlns:svg="http://www.w3.org/2000/svg">
 <g class="layer">
  <title>Layer 1</title>
  <path d="m251,522q-33,0 -56.5,-23.5t-23.5,-56.5q0,-33 23.5,-56.5t56.5,-23.5q33,0 56.5,23.5t23.5,56.5q0,33 -23.5,56.5t-56.5,23.5zm240,0q-33,0 -56.5,-23.5t-23.5,-56.5q0,-33 23.5,-56.5t56.5,-23.5q33,0 56.5,23.5t23.5,56.5q0,33 -23.5,56.5t-56.5,23.5zm240,0q-33,0 -56.5,-23.5t-23.5,-56.5q0,-33 23.5,-56.5t56.5,-23.5q33,0 56.5,23.5t23.5,56.5q0,33 -23.5,56.5t-56.5,23.5z" fill="#05af4c" id="svg_1"/>
 </g>
</svg>