<?xml version="1.0"?>
<svg width="960" height="960" xmlns="http://www.w3.org/2000/svg" xmlns:svg="http://www.w3.org/2000/svg">
 <g class="layer">
  <title>Layer 1</title>
  <path d="m265,630q47,0 91.5,10.5t88.5,31.5l0,-394q-41,-24 -87,-36t-93,-12q-36,0 -71.5,7t-68.5,21l0,396q35,-12 69.5,-18t70.5,-6zm260,42q44,-21 88.5,-31.5t91.5,-10.5q36,0 70.5,6t69.5,18l0,-396q-33,-14 -68.5,-21t-71.5,-7q-47,0 -93,12t-87,36l0,394zm-40,118q-48,-38 -104,-59t-116,-21q-42,0 -82.5,11t-77.5,31q-21,11 -40.5,-1t-19.5,-35l0,-482q0,-11 5.5,-21t16.5,-15q46,-24 96,-36t102,-12q58,0 113.5,15t106.5,45q51,-30 106.5,-45t113.5,-15q52,0 102,12t96,36q11,5 16.5,15t5.5,21l0,482q0,23 -19.5,35t-40.5,1q-37,-20 -77.5,-31t-82.5,-11q-60,0 -116,21t-104,59zm-200,-334z" fill="#05af4c" id="svg_1"/>
 </g>
</svg>